<?xml version="1.0" standalone="no"?>
<!DOCTYPE svg PUBLIC "-//W3C//DTD SVG 20010904//EN"
 "http://www.w3.org/TR/2001/REC-SVG-20010904/DTD/svg10.dtd">
<svg version="1.0" xmlns="http://www.w3.org/2000/svg"
 width="1024.000000pt" height="1024.000000pt" viewBox="0 0 1024.000000 1024.000000"
 preserveAspectRatio="xMidYMid meet">
<metadata>
Created by potrace 1.14, written by Peter Selinger 2001-2017
</metadata>
<g transform="translate(0.000000,1024.000000) scale(0.100000,-0.100000)"
fill="#000000" stroke="none">
<path d="M5895 8899 c-27 -5 -90 -19 -140 -31 -348 -83 -709 -302 -1135 -687
-139 -126 -465 -445 -462 -453 3 -11 -420 -432 -740 -737 -164 -155 -298 -288
-298 -295 0 -7 -10 -21 -23 -32 -12 -10 -88 -73 -167 -140 -582 -484 -847
-886 -959 -1452 -41 -206 -54 -346 -54 -577 1 -546 139 -978 408 -1273 196
-214 480 -382 940 -558 83 -31 153 -60 156 -63 4 -3 24 -286 45 -628 l38 -623
26 0 c14 0 31 -5 38 -12 10 -10 31 6 100 73 48 48 593 572 1212 1166 646 619
1380 1336 1724 1681 330 331 597 602 593 602 -3 0 5 12 19 28 44 47 316 381
432 529 547 702 754 1236 671 1728 -82 486 -524 1046 -1114 1413 -250 155
-488 256 -750 318 -95 23 -136 27 -310 30 -110 1 -222 -1 -250 -7z"/>
</g>
</svg>
